<?xml version="1.0" encoding="UTF-8"?>
<svg viewBox="0 0 744.09447 1052.362179" xmlns="http://www.w3.org/2000/svg" xmlns:xlink="http://www.w3.org/1999/xlink">
 <defs>
  <linearGradient id="a">
   <stop offset="0"/>
   <stop stop-opacity="0" offset="1"/>
  </linearGradient>
  <linearGradient id="b">
   <stop stop-color="#b3b3b3" offset="0"/>
   <stop stop-color="#b3b3b3" stop-opacity="0" offset="1"/>
  </linearGradient>
  <linearGradient id="c">
   <stop stop-color="#ddd" offset="0"/>
   <stop stop-color="#ddd" stop-opacity="0" offset="1"/>
  </linearGradient>
  <linearGradient id="p" x1="501.54" x2="678.82" gradientUnits="userSpaceOnUse">
   <stop stop-color="#c63223" offset="0"/>
   <stop stop-color="#c63223" offset=".42857"/>
   <stop stop-color="#c63323" stop-opacity="0" offset="1"/>
  </linearGradient>
  <linearGradient id="d" x1="312.14" x2="463.65" gradientUnits="userSpaceOnUse">
   <stop stop-color="#d3d3d3" offset="0"/>
   <stop stop-color="#d3d3d3" stop-opacity="0" offset="1"/>
  </linearGradient>
  <linearGradient id="o" x1="307.6" x2="485.37" gradientUnits="userSpaceOnUse">
   <stop stop-color="#c8c8c8" offset="0"/>
   <stop stop-color="#c8c8c8" stop-opacity=".49804" offset=".78571"/>
   <stop stop-color="#c8c8c8" stop-opacity="0" offset="1"/>
  </linearGradient>
  <linearGradient id="n" x1="335.8" x2="422.74" gradientUnits="userSpaceOnUse">
   <stop stop-color="#b60003" offset="0"/>
   <stop stop-color="#b60003" stop-opacity=".49804" offset="1"/>
   <stop stop-color="#b60003" stop-opacity="0" offset="1"/>
  </linearGradient>
  <linearGradient id="i" x1="352.51" x2="464.16" gradientUnits="userSpaceOnUse">
   <stop offset="0"/>
   <stop stop-opacity=".68367" offset="1"/>
   <stop stop-opacity="0" offset="1"/>
  </linearGradient>
  <linearGradient id="x" x1="633.33" x2="680.31" gradientUnits="userSpaceOnUse" xlink:href="#a"/>
  <linearGradient id="w" x1="634.2" x2="679.25" gradientUnits="userSpaceOnUse" xlink:href="#a"/>
  <linearGradient id="v" x1="633.7" x2="680.5" gradientUnits="userSpaceOnUse" xlink:href="#a"/>
  <linearGradient id="f" x1="633.14" x2="680.12" gradientUnits="userSpaceOnUse" xlink:href="#a"/>
  <linearGradient id="u" x1="633.83" x2="679.81" gradientUnits="userSpaceOnUse" xlink:href="#a"/>
  <linearGradient id="e" x1="633.33" x2="680.31" gradientUnits="userSpaceOnUse" xlink:href="#a"/>
  <linearGradient id="t" x1="634.01" x2="680" gradientUnits="userSpaceOnUse" xlink:href="#a"/>
  <linearGradient id="s" x1="633.83" x2="679.81" gradientUnits="userSpaceOnUse" xlink:href="#a"/>
  <linearGradient id="r" x1="633.64" x2="679.62" gradientUnits="userSpaceOnUse" xlink:href="#a"/>
  <linearGradient id="q" x1="633.89" x2="680.87" gradientUnits="userSpaceOnUse" xlink:href="#a"/>
  <linearGradient id="m" x1="454.6" x2="484.42" gradientUnits="userSpaceOnUse" xlink:href="#c"/>
  <linearGradient id="l" x1="456.63" x2="485.93" gradientUnits="userSpaceOnUse" xlink:href="#c"/>
  <linearGradient id="k" x1="423.3" x2="433.83" gradientUnits="userSpaceOnUse" xlink:href="#b"/>
  <linearGradient id="j" x1="418.02" x2="430.8" gradientUnits="userSpaceOnUse" xlink:href="#b"/>
  <radialGradient id="g" cx="137.67" cy="510.31" r="16.034" gradientTransform="matrix(-2.9224 -.30219 .07675 -.74222 481.41 919.64)" gradientUnits="userSpaceOnUse">
   <stop stop-color="#767676" offset="0"/>
   <stop stop-color="#fff" offset="1"/>
  </radialGradient>
  <radialGradient id="h" cx="393.12" cy="578.7" r="342.35" gradientTransform="matrix(1.0372 .69481 -.39729 .59304 215.31 -37.639)" gradientUnits="userSpaceOnUse" xlink:href="#a"/>
 </defs>
 <path d="m232.76 516.43 15.722-3.2 9.8782 1.6696-10.017 3.4087-16.07 0.20869 0.48696-2.087z" fill="#3b3b3b" fill-rule="evenodd" stroke="#000"/>
 <path d="m674.47 594.83s61.793 10.518 60.479 18.407-19.721 24.98-39.443 24.98-71.654 14.462-84.802 13.148-19.125 1.2539-42.79-5.3198-324.56-75.72-327.19-78.35-92.971-24.423-104.86-26.074c-22.549-3.1322-84.068-17.255-84.068-17.255s85.595-17.624 96.77-15.652 527.22 86.116 525.9 86.116z" fill="url(#h)" fill-rule="evenodd"/>
 <path d="m270.58 570.26s15.999 1.9006 16.97-0.04121 15.534-23.787 7.2817-37.379-14.563-8.2526-14.563-8.2526l-8.738-0.97089-9.2234 15.534v15.049l8.2732 16.061z" fill-rule="evenodd" stroke="#000"/>
 <path d="m252.45 569.87s15.999 1.9006 16.97-0.04121 15.534-23.787 7.2817-37.379-14.563-8.2526-14.563-8.2526l-8.738-0.97089-9.2234 15.534v15.049l8.2732 16.061z" fill-rule="evenodd" stroke="#000"/>
 <path d="m334.42 538.64-27.793-5.3793v-7.1724l-7.1724 8.9656-64.552-10.759s-11.655-9.8621-3.5862-7.1725 60.966-7.1724 60.966-7.1724l67.242-2.6897-6.2759 25.104-18.828 6.2759z" fill-rule="evenodd" stroke="#000"/>
 <path d="m492.89 547.88 23.551-3.5514 16.822 0.56074 14.206 1.8692-21.869-28.411-20.561-26.168-12.336-11.589-3.7383 45.794 3.9252 21.495z" fill="#bc0700" fill-rule="evenodd"/>
 <path d="m532.5 635.7 17.058-1.9028s9.413-4.408 11.505-13.297c1.7936-7.6193 0.59706-36.593 0.59706-36.593l-23.301-25.243-22.816 8.738-10.864 27.626 27.821 40.671z" fill-rule="evenodd" stroke="#000"/>
 <path d="m677.54 506.23-34.746 2.2706-9.9212 2.8596s-9.5664 6.0384-9.5664 12.835 0.48545 67.962 0.48545 67.962l61.651-12.136-0.48545-69.419-2.4272-2.4272-4.9909-1.9451z" fill-rule="evenodd" stroke="#000" stroke-linejoin="round"/>
 <path d="m698.82 561.58-6.7962-11.651-10.68 1.9418 2.9127 13.592 14.563-3.8836z" fill="#d5d5d5" fill-rule="evenodd"/>
 <path d="m499.04 592.16c1.9418 0 11.651-25.243 19.418-25.243s26.214 2.9127 27.185 7.7671 16.991 15.534 14.078 33.981-21.845 26.214-21.845 26.214-21.36 4.8544-32.039-11.651-7.7671-29.127-6.7962-31.068z" fill-rule="evenodd" stroke="#000"/>
 <path d="m483.47 610.51 29.361-11.804 10.759-21.517s28.69 12.552 32.276 12.552 24.207-4.4828 24.207-4.4828l-8.069-33.173-57.38-10.759-29.887 30.781-13.147 33.771 11.88 4.6317z" fill-rule="evenodd"/>
 <path d="m557.29 587.31 3.3981 30.098 36.894 6.7962s15.573 1.1941 27.709-1.7186 60.195-15.534 60.195-15.534 16.952-10.903 16.952-16.728-0.97089-14.563-0.97089-14.563l-7.7671-2.9127-6.7962-5.8253h-18.447s-39.321 7.2817-39.321 9.2234-1.9418 10.68-1.9418 10.68l-26.063 2.9853-8.5148 1.3447c-3.0797 0.49247-34.84-5.7864-35.326-3.8446z" fill-rule="evenodd" stroke="#000" stroke-linejoin="round"/>
 <path d="m508.75 597.5s4.369-16.991 15.049-18.932 20.126 18.932 20.126 18.932 4.369 24.758-14.563 28.156-21.583-27.67-20.612-28.156z" fill="#d3d3d3" fill-rule="evenodd" stroke="#000"/>
 <path d="m581.64 448.08-7.6207-0.89656-74.19 2.6897-8.069 6.2759-7.8449-2.9138-6.7242-1.569-39.673-0.67241-0.44828-7.1725s7.3966-2.0172 11.431-2.0172 123.05-0.44828 123.05-0.44828 10.535 4.2586 11.879 7.3966-2.6897-0.44828-1.7931-0.67242z" fill="#cb0e11" fill-rule="evenodd" stroke="#cb0e11"/>
 <path d="m90.776 511.74c-0.44828 0.44828-7.1724 1.681-7.1724 0.33621s0.44828-9.638 0.44828-9.638l11.879 0.44828-1.0086 10.983-5.1552-2.0172 1.0086-0.11207z" fill-rule="evenodd" stroke="#000"/>
 <path d="m178.03 527.1s-8.367 8.5994-24.404 3.2538-29.749-27.89-29.749-27.89v-5.578s33.236 1.1621 34.63 1.1621 20.918 8.5995 20.918 8.5995l-1.3945 20.453z" fill-rule="evenodd" stroke="#000"/>
 <path d="m642.46 508.4-13.637-2.5254-17.173 1.0102h-10.102c2.0203 0 8.5863-3.5355 8.5863-3.5355l-19.193 1.0102-7.0711-2.0203 7.0711-1.0102-17.173-1.0102 3.0304-2.0203s10.102-6.0609 5.0508-6.0609-1.9407-4.2633-1.9407-4.2633l-77.321 8.9959-6.0967 3.8537-4.0406 5.0508 3.0304 35.355 10.102-3.0304 7.0711-1.0102s0-2.0203 2.0203-2.0203h15.152l2.0203 3.0305 33.84 8.0812 43.437 15.152 13.132 22.223 5.0508 2.0203-4.0406-61.114 1.0102-5.0508 5.0508-6.0609 5.0508-3.0305 8.0812-2.0203z" fill="#c63323" fill-rule="evenodd"/>
 <path d="m307.2 526.41 11.165-0.48545s16.505 14.563 13.592 29.127-12.622 22.33-12.622 22.33l-16.846 0.97089 8.5937-7.2817 1.7242-18.741s-6.2696-17.182-6.2696-19.124 1.1472-5.8253 0.66175-6.7962z" fill-rule="evenodd" stroke="#000"/>
 <path d="m291.79 527.17 11.165-0.48545s16.505 14.563 13.592 29.127-12.622 22.33-12.622 22.33l-14.149-0.14215 5.8964-6.1686 7.7671-19.903s-5.3399-16.02-5.3399-17.961-5.8253-5.8253-6.3108-6.7962z" fill-rule="evenodd" stroke="#000"/>
 <path d="m555.08 585.67s3.5355-1.5152-7.5761-17.678-47.477-10.607-47.477-10.607l-13.132 25.254-170.72-29.8-1.0102 2.0203h-3.0304l-1.0102-6.0609-2.0203-5.0508 146.98 27.274s12.122 2.0203 13.132 0 5.0508-2.0203 5.0508-2.0203l13.132-18.688s8.0812-10.102 13.132-9.0914 10.102-0.50507 10.102-0.50507l26.769 2.5254 30.81 8.0812 15.152 9.0914-7.5762 9.5964-18.688 13.132-2.0203 2.5254z" fill="#cb5a53" fill-rule="evenodd"/>
 <path d="m509.62 553.35 56.063 5.5558s16.162 2.5254-6.566-6.566-38.891-11.112-38.891-11.112l18.183-2.0203-15.657-5.0508s70.206 6.0609 83.338 15.152 21.718 38.386 21.718 38.386l-34.345 4.5457-35.355-6.0609s-7.0711-27.274-33.84-30.305-14.647-2.0203-14.647-2.5254z" fill="#cb4c2b" fill-rule="evenodd"/>
 <path d="m488.41 578.6-2.0203 12.122-3.0305 19.193-169.2-36.871-1.0102-4.0406-2.0203-15.152-1.0102-5.0508 178.29 29.8z" fill="#bebebe" fill-rule="evenodd" stroke="#bebebe"/>
 <path d="m463.15 596.28-13.637 4.5457-136.88-28.284 2.0203-4.0406 11.112-1.0102 137.38 28.789z" fill="url(#d)" fill-rule="evenodd" stroke="url(#d)"/>
 <path d="m396.48 512.44-8.5863-1.5152 0.50507-30.81 4.0406-1.0102 2.0203-2.0203s3.0305-2.0203 3.0305 0v6.0609l-5.0508-1.0102-1.0102 26.264 3.0305 1.0102v-2.0203h2.0203v5.0508z" fill="none" stroke="#000"/>
 <path d="m482.35 555.37-164.15-21.213 1.0102 8.0812-10.738 1.7578 156.2 28.547 8.0812-1.0102 8.0812-6.0609 4.0406-9.0914-2.5254-1.0102z" fill="url(#o)" fill-rule="evenodd"/>
 <path d="m491.31 456.76-7.8061-6.8352h-44.661l4.369 100 37.865 4.369 10.68 1.9418 5.8253-9.7089-2.4272-1.9418v-52.913l-3.8446-34.913z" fill="#b60003" fill-rule="evenodd" stroke="#b60003"/>
 <path d="m487.87 489.25-40.292-1.4563v-30.098l29.127-0.97089s6.7962-0.97089 7.7671 7.7671 2.4272 25.243 3.3981 24.758z" fill="#380000" fill-rule="evenodd" stroke="#000"/>
 <path d="m463.66 552.34s-7.0711 10.102-15.152 8.0812-10.102-6.0609-9.0914-8.0812-7.0711 7.0711-7.0711 7.0711-81.317-12.122-79.297-12.122 21.718-9.0914 21.718-9.0914 42.931 7.5761 42.931 5.5558-0.74766-15.932-0.74766-15.932l8.3238 7.3453-9.4571-93.248 29.465-0.30232-6.876 8.1926 4.0406 5.0508-3.0305 5.0508 7.5761-6.566 1.0102-4.0406s2.0203-6.0609 6.0609-6.0609 6.0609 2.0203 6.0609 2.0203l-5.0508 6.0609 1.5152 35.355 7.0711 4.0406v12.122l-1.0102 22.223 1.0102 27.274z" fill="url(#i)" fill-rule="evenodd"/>
 <path d="m298.55 507.21-244.6-23.281 64.988-0.50605 273.79 13.107-44.661 7.2817-1.4563 2.4272-48.059 0.97089z" fill="#c8c8c8" fill-rule="evenodd" stroke="#d2d2d2"/>
 <path d="m490.78 452.84 7.7671-4.8544 81.069-0.97089 4.369 3.3981 6.7962 37.865-85.438 8.738s-5.8253 0.97088-7.7671-3.8836l-1.9418-4.8544-4.8544-35.437z" fill-rule="evenodd" stroke="#000"/>
 <path d="m458.74 500.41s-10.68 0.97089-11.651-0.97089-4.8544-4.8544-4.8544-8.738-1.9418-3.8836-1.9418-3.8836v-28.156h3.8836v-2.9127l4.8544 0.97089 0.97089 1.9418 3.8836 0.97089 1.9418 30.098-4.8544-0.97089v3.8836s5.8253 3.8836 6.7962 1.9418 1.4563 6.3108 0.97088 5.8253z" fill="#a7a7a7" fill-rule="evenodd"/>
 <path d="m585.93 580.02-5.8253-7.7671s-1.9418-5.8253 0.97089-5.8253h9.7089l6.7962 12.622-11.651 0.97089z" fill="#e97f00" fill-rule="evenodd" stroke="#ff9308"/>
 <path d="m598.55 580.02-7.7671-13.592s23.301-4.8544 23.301-2.9127 11.651 14.563 5.8253 14.563-21.36 2.9127-21.36 1.9418z" fill="#d5d5d5" fill-rule="evenodd"/>
 <path d="m522.82 610.12s-9.7089-4.8544-7.7671-11.651 7.7671-7.7671 7.7671-7.7671 8.738 0 7.7671 11.651-8.738 7.7671-7.7671 7.7671z" fill-rule="evenodd" stroke="#000"/>
 <path d="m691.76 571.02 7.7671-1.9418-0.97089-6.7962-16.131 3.6603 9.335 5.0777z" fill-rule="evenodd" stroke="#000"/>
 <path d="m691.05 549.37-8.738-12.622 1.3447 14.636 7.3933-2.0144z" fill-rule="evenodd" stroke="#000"/>
 <path d="m289.32 578.22s-17.476-9.845-13.592-28.292 16.505-20.389 16.505-20.389 23.224 4.0302 16.991 27.185c-6.7962 25.243-14.545 21.29-19.903 21.496z" fill-rule="evenodd" stroke="#000"/>
 <path d="m281.18 553.85s1.9418-12.177 9.7089-14.119 9.5978 19.903 9.5978 19.903-5.451 16.359-11.276 11.505-7.0801-8.9424-8.0304-17.289z" fill="#ccc" fill-rule="evenodd" stroke="#000"/>
 <path d="m298.55 561.58c-1.9418 0-7.7671-4.8544-5.8253-7.7671s6.2902-4.3896 6.2902-4.3896 4.472 5.3193 4.472 7.261-4.9369 5.8666-4.9369 4.8957z" fill-rule="evenodd" stroke="#000"/>
 <path d="m303.4 562.55s-5.8253 14.563-7.7671 15.534-16.655-13.36-16.655-13.36-2.7627-18.679 4.0335-23.534 11.651-8.738 15.534-2.9127 5.8253 24.272 4.8544 24.272z" fill="none" stroke="#000"/>
 <path d="m253.85 570.34c-3.7621 0-15.748-11.33-13.066-27.205 2.1578-12.772 13.592-17.476 13.592-17.476s19.418 10.68 15.534 27.185-5.9946 18.485-16.061 17.497z" fill-rule="evenodd" stroke="#000"/>
 <path d="m252.51 561.73s-9.1332-5.3353-6.8723-16.172c2.9127-13.961 10.577-12.122 10.577-12.122s5.6252 5.9695 4.4781 17.725c-0.83532 8.5605-3.4915 12.675-8.1825 10.569z" fill="#d6d6d6" fill-rule="evenodd" stroke="#000"/>
 <path d="m257.81 553.37s-3.4393-1.4976-3.4393-6.352 4.8544-3.9248 4.8544-3.9248 3.8836 1.983 2.9127 6.8374-4.8132 3.9248-4.3278 3.4393z" fill-rule="evenodd" stroke="#000"/>
 <path d="m253.93 563.58-8.7792-5.4017s-0.97089-13.592-1.9418-16.505 10.871-11.418 10.871-11.418l9.5177 8.5056 2.9127 13.592-4.8544 9.7089-7.7259 1.5182z" fill="none" stroke="#000"/>
 <path d="m269.42 514-34.952 2.4272-1.9418 27.185 2.9127 0.97089-9.7089 4.8544-8.738-0.97088 6.7962-2.9127v-28.641l-5.8253 0.97089 0.97088-9.7089 1.9418-3.8836 57.768 5.3399-9.2234 4.369z" fill-rule="evenodd" stroke="#000"/>
 <path d="m226.22 532.45c0 1.9418-19.903 3.8836-19.903 3.8836l-5.8253-3.8836 0.48544-6.7962-11.651-1.9418-4.369 4.369-8.2526 2.9127h-2.9127l-13.107-0.48544-2.4272-18.447-5.3399-2.9127 9.2234-10.68 74.273 5.8253-9.2234 24.272-0.97089 3.8836z" fill-rule="evenodd" stroke="#000"/>
 <path d="m62.535 526.08s-3.6748-1.4937-5.495-5.7092c-1.6081-3.7243-3.4762-9.22-2.495-16.211 1.7931-12.776 8.8866-13.718 8.8866-13.718s10.535 0.44827 10.871 3.0259 5.2673 8.1811-0.67242 19.164 10.316 14.507-11.095 13.448z" fill-rule="evenodd" stroke="#000"/>
 <path d="m61.331 525.15 12.523 0.48139s6.5-2.9138 7.8449-12.664 0.56035-19.276 0.56035-19.276l-1.4569-1.9052-16.474-1.1207s8.8535 2.9138 9.5259 3.5862 0.56035 16.698 0.56035 16.698l-10.198 11.207-1.3614 3.7149 6.0015-0.39416-7.5246-0.32793z" fill-rule="evenodd" stroke="#000"/>
 <path d="m74.176 525.76c6.836 1.0589 11.521-0.23576 11.521-0.23576s4.8262-9.8444 3.7055-18.698-5.6863-14.698-5.6863-14.698l-14.457-1.681 12.776 10.086-7.7328 21.069-0.12604 4.1571z" fill-rule="evenodd" stroke="#000"/>
 <path d="m83.044 497.51c1.3448 0.33621 16.362 3.8104 16.362 3.138s3.5862-8.9656 3.5862-8.9656l-19.836-2.1293 0.22414 8.5173-0.33621-0.56035z" fill-rule="evenodd" stroke="#000"/>
 <path d="m62.535 520.48s-4.819-4.9311-3.3621-15.017 7.9735-9.3311 7.9735-9.3311 10.182 2.0465 3.6817 13.59-1.1086 4.5496-1.1086 4.5496-2.6483 6.898-7.1846 6.2091z" fill="#c0c0c0" fill-rule="evenodd" stroke="#c0c0c0"/>
 <path d="m72.974 501.66-3.4538 1.3576s-3.9759 3.4958-1.4442 11.348c0.46138 1.431 2.6064 7.0015 3.8728 6.6783 4.3911-1.1207 6.0518-14.47 6.0518-14.47l-5.0266-4.9145z" fill-rule="evenodd" stroke="#000"/>
 <path d="m480.55 511.96-9.8621 0.44828-15.466-4.0345s-1.7931-4.2586 8.069-3.5862 10.31-2.0172 10.31-2.0172l10.31 5.8276-3.3621 3.3621z" fill="url(#m)" fill-rule="evenodd"/>
 <path d="m485.49 544.69c-0.89656 1.3448-7.1724-0.22414-7.1724 0.67242s0.89655 5.6035 0.89655 5.6035-4.7069-0.22414-6.0518-0.22414-13-2.9138-13-2.9138-5.6035-5.8276-2.6897-4.4828 6.2759 1.569 6.2759 1.569l-1.3448-3.5862-5.6035-0.67241 2.9138-1.3448 26.224 2.6897-0.44828 2.6897z" fill="url(#l)" fill-rule="evenodd"/>
 <path d="m630.59 519.83 1.4563 65.05 51.457-10.68 0.48544-60.195s-2.9127-3.8836-4.8544-3.8836-36.894 2.4272-36.894 2.4272-10.68 2.9127-10.68 4.8544 0 2.9127-0.97089 2.4272z" fill="#a3a19f" fill-rule="evenodd" stroke="#000"/>
 <path d="m645.79 517.6v-2.6168s1.6822-1.1215 6.1682-1.8692 14.953-0.74766 14.953-0.74766 2.0561 0.56075 2.0561 1.6822-1.4953 2.6168-1.4953 2.6168-11.589-1.1215-14.579 0-7.4766 1.1215-7.1028 0.93457z" fill-rule="evenodd" stroke="#000"/>
 <path d="m678.18 505.36-87.565-16.668-55.861 5.5558s-4.026 2.0203-2.013 2.0203 2.013-2.0203 2.013-2.0203h-13.084l-20.13 1.5152 126.82 16.162 3.0195-3.0305 6.6361 0.59345 10.474-1.3789 29.692-2.7501z" fill="url(#p)" fill-rule="evenodd"/>
 <path d="m635.14 522.09 42.99-4.8598s1.1215 0.74766 1.1215 1.4953-45.046 5.2336-45.046 5.2336l0.93457-1.8691z" fill="url(#w)" fill-rule="evenodd"/>
 <path d="m634.58 527.32 45.42-6.1682v2.6168l-45.794 6.3551 0.37383-2.8037z" fill="url(#v)" fill-rule="evenodd"/>
 <path d="m634.2 532.74 45.42-6.542v2.243l-45.981 7.2897 0.56074-2.9906z" fill="url(#f)" fill-rule="evenodd"/>
 <path d="m634.39 537.88 45.42-6.542v2.243l-45.981 7.2897 0.56074-2.9906z" fill="url(#u)" fill-rule="evenodd"/>
 <path d="m634.39 542.93 45.42-6.542v2.243l-45.981 7.2897 0.56074-2.9906z" fill="url(#e)" fill-rule="evenodd"/>
 <path d="m634.58 548.35 45.42-6.542v2.243l-45.981 7.2897 0.56074-2.9906z" fill="url(#t)" fill-rule="evenodd"/>
 <path d="m634.39 553.77 45.42-6.542v2.243l-45.981 7.2897 0.56074-2.9906z" fill="url(#x)" fill-rule="evenodd"/>
 <path d="m634.39 558.63 45.42-6.542v2.243l-45.981 7.2897 0.56074-2.9906z" fill="url(#e)" fill-rule="evenodd"/>
 <path d="m634.39 563.49 45.42-6.542v2.243l-45.981 7.2897 0.56074-2.9906z" fill="url(#s)" fill-rule="evenodd"/>
 <path d="m634.2 568.35 45.42-6.542v2.243l-45.981 7.2897 0.56074-2.9906z" fill="url(#f)" fill-rule="evenodd"/>
 <path d="m634.2 572.46 45.42-6.542v2.243l-45.981 7.2897 0.56074-2.9906z" fill="url(#r)" fill-rule="evenodd"/>
 <path d="m634.95 576.57 45.42-6.542v2.243l-45.981 7.2897 0.56074-2.9906z" fill="url(#q)" fill-rule="evenodd"/>
 <path d="m415.68 452.84c-3.0305 0-56.063-1.5152-56.063-1.5152l3.0304-6.0609-6.0609 7.0711-19.829-0.26249s-1.0102-6.8086 4.0406-8.8289 82.383-1.3084 82.383-1.3084l-2.9549 6.3592-4.5457 4.5457z" fill="url(#n)" fill-rule="evenodd"/>
 <g transform="translate(-10.696 -3.3915)" fill-rule="evenodd">
  <path d="m112.13 534.86c6.798 0.69183 10.784-1.2576 10.784-1.2576s9.3514-11.128 6.998-22.783-4.8852-13.83-4.8852-13.83l-10.422-1.1207 2.5903 8.3263 2.5649 15.32-5.6035 11.319-2.0255 4.0262z" stroke="#000"/>
  <path d="m96.77 534.95s-7.3384-3.9379-5.9935-19.179 8.6294-19.836 8.6294-19.836 14.121-2.3535 11.095 20.621-12.816 18.583-13.731 18.395z" stroke="#000"/>
  <path d="m99.132 529.64s-4.9531-6.0678-4.1096-14.121c1.1372-10.858 7.1145-12.403 7.1145-12.403s8.3041-1.0936 5.1138 15.014c-1.8567 9.3739-3.1367 13.536-8.1187 11.51z" fill="#b1b1b1" stroke="#b1b1b1"/>
  <path d="m98.379 535.4c4.746 1.0309 12.717-0.17454 12.686-0.18719 0 0 10.373-12.336 8.0193-23.991s-4.8852-13.83-4.8852-13.83l-10.422-1.1207 5.3793 7.3966-0.22414 16.25-5.6035 11.319-4.9489 4.1638z" stroke="#000"/>
  <path d="m106.91 509.67s-4.1835 1.8593-4.1835 5.578 4.6484 6.5077 4.6484 6.5077 5.8104-4.4159 5.8104-5.3456-6.0429-6.5077-6.2753-6.7401z" stroke="#000"/>
 </g>
 <g transform="translate(15.815 1.7962)" fill-rule="evenodd">
  <path d="m112.13 534.86c6.798 0.69183 10.784-1.2576 10.784-1.2576s9.3514-11.128 6.998-22.783-4.8852-13.83-4.8852-13.83l-10.422-1.1207 2.5903 8.3263 2.5649 15.32-5.6035 11.319-2.0255 4.0262z" stroke="#000"/>
  <path d="m96.77 534.95s-7.3384-3.9379-5.9935-19.179 8.6294-19.836 8.6294-19.836 14.121-2.3535 11.095 20.621-12.816 18.583-13.731 18.395z" stroke="#000"/>
  <path d="m99.132 529.64s-4.9531-6.0678-4.1096-14.121c1.1372-10.858 7.1145-12.403 7.1145-12.403s8.3041-1.0936 5.1138 15.014c-1.8567 9.3739-3.1367 13.536-8.1187 11.51z" fill="#b1b1b1" stroke="#b1b1b1"/>
  <path d="m98.379 535.4c4.746 1.0309 12.717-0.17454 12.686-0.18719 0 0 10.373-12.336 8.0193-23.991s-4.8852-13.83-4.8852-13.83l-10.422-1.1207 5.3793 7.3966-0.22414 16.25-5.6035 11.319-4.9489 4.1638z" stroke="#000"/>
  <path d="m106.91 509.67s-4.1835 1.8593-4.1835 5.578 4.6484 6.5077 4.6484 6.5077 5.8104-4.4159 5.8104-5.3456-6.0429-6.5077-6.2753-6.7401z" stroke="#000"/>
 </g>
 <g transform="translate(19.947 3.0688)" fill-rule="evenodd">
  <path d="m156.31 530.51c-1.9418 0.97088-18.467-1.0121-18.467-1.0121l0.99149-21.318h11.651s-3.3981-11.165 0-9.7089 11.651 3.8836 11.651 3.8836-11.165 22.33-5.8253 28.156z" fill="#424242" stroke="#424242"/>
  <path d="m140.29 529.54-22.33-2.9127 0.48545-20.874 21.36 1.9418 0.48544 21.845z" fill="#767676" stroke="#767676"/>
  <path d="m118.49 505.29 10.639-1.4769s1.9418-1.9418-0.97089-4.8544-2.9127-3.8836-2.9127-3.8836l24.272 1.9418 0.50605 11.062-10.215 1.5594-21.318-4.3484z" fill="url(#g)"/>
 </g>
 <path d="m300.49 517.4-245.63-27.67-0.97089-5.8253 245.15 23.301 1.4563 10.194z" fill="#b4b4b4" fill-rule="evenodd" stroke="#b4b4b4"/>
 <path d="m299.54 517.36 53.378-4.3278-4.8544-6.7962-52.913 0.97089 4.3896 10.153z" fill="#828282" fill-rule="evenodd" stroke="#828282"/>
 <path d="m416.69 549.81c2.0203 0 3.0304-3.0305 3.0304-3.0305l-2.5254-93.944 5.0508-2.0203 1.0102-8.0812-73.741 0.50508-9.0914 2.0203-4.0406 5.0508v2.0203l3.0305 86.873 77.277 10.607z" fill="#b60033" fill-rule="evenodd"/>
 <path d="m440.78 550.29c0.48545 0.84953-13.107-0.6068-14.563-5.704s-0.97088-10.437-0.97088-10.437-4.4904 0.12136-5.0972-0.48545-0.84953 1.335-0.84953-3.5195-1.699-78.399-1.699-78.399 1.2136-1.8204 3.1554-2.3059 3.5195 0.72817 3.5195-2.9127-0.60681-39.442-0.60681-39.442 0.48545-0.24272-1.2136-2.5486-5.704-5.2185-5.704-5.2185-1.9418-1.2136-0.72817-2.4272 4.1263-4.369 4.1263-4.369 0.24272-0.48544 0.72817 0 9.5875 8.2526 9.5875 8.2526 2.4272 1.9418 2.4272 4.6117 0.12137 44.418 0.12137 44.418-0.24273 0.48545 0 0.48545 4.8544 0.97089 4.8544 1.9418 0.84953 80.341 0.84953 80.341 0 1.9418-1.2136 1.6991-3.8836-0.24272-3.8836-0.24272l0.24272 7.7671s1.9418 2.4272 4.369 2.9127 8.0098 0 8.0098-0.72817 0.36409 5.3399 0.36409 5.3399l-5.8253 0.97089z" fill="#dedede" fill-rule="evenodd" stroke="#dedede"/>
 <path d="m418.02 396.08 2.2414-2.6897s8.069 6.5 8.9656 8.2932 1.569 8.2932 1.569 14.569-0.44828 34.293-0.44828 34.293l-2.2414-8.069-2.2414-1.3448 0.44828-35.638s1.7931-4.4828-2.2414-5.8276-4.4828-1.7931-4.4828-1.7931l-1.569-1.7931z" fill="url(#j)" fill-rule="evenodd"/>
 <path d="m432.36 475.2c1.3448 1.3448 0.89656 3.138 0.89656 3.138s-4.7069-0.67242-3.8104 4.7069 0.89656 28.69 0.89656 28.69l-3.138 0.44828s-5.8276-29.811-2.2414-33.845 7.6207-2.6897 7.3966-3.138z" fill="url(#k)" fill-rule="evenodd"/>
 <g transform="matrix(.953 0 0 .9308 12.524 35.341)" fill-rule="evenodd" stroke-width="1.0618">
  <path d="m274.71 506.76 1.2522 5.7043-0.90435 1.113-15.652-1.5304-2.4348-7.3739 1.2522-0.27826 16.417 1.7391 0.06957 0.62609z" fill="#8e7d70" stroke="#5f5f5f"/>
  <path d="m274.71 513.02-1.3217-6.0522-13.329-1.5603-2.1837-0.24838 2.0174 6.0522 14.817 1.8087z" fill="#e45e00" stroke="#d22f00"/>
 </g>
 <g transform="matrix(.80071 0 0 .79266 -4.6649 99.338)" fill-rule="evenodd" stroke-width="1.2552">
  <path d="m274.71 506.76 1.2522 5.7043-0.90435 1.113-15.652-1.5304-2.4348-7.3739 1.2522-0.27826 16.417 1.7391 0.06957 0.62609z" fill="#8e7d70" stroke="#5f5f5f"/>
  <path d="m274.71 513.02-1.3217-6.0522-13.329-1.5603-2.1837-0.24838 2.0174 6.0522 14.817 1.8087z" fill="#e45e00" stroke="#d22f00"/>
 </g>
 <g transform="matrix(.71858 0 0 .61094 -35.315 186.18)" fill-rule="evenodd" stroke-width="1.5093">
  <path d="m274.71 506.76 1.2522 5.7043-0.90435 1.113-15.652-1.5304-2.4348-7.3739 1.2522-0.27826 16.417 1.7391 0.06957 0.62609z" fill="#8e7d70" stroke="#5f5f5f"/>
  <path d="m274.71 513.02-1.3217-6.0522-13.329-1.5603-2.1837-0.24838 2.0174 6.0522 14.817 1.8087z" fill="#e45e00" stroke="#d22f00"/>
 </g>
 <g transform="matrix(.66183 0 0 .51602 -66.987 229.95)" fill-rule="evenodd" stroke-width="1.7112">
  <path d="m274.71 506.76 1.2522 5.7043-0.90435 1.113-15.652-1.5304-2.4348-7.3739 1.2522-0.27826 16.417 1.7391 0.06957 0.62609z" fill="#8e7d70" stroke="#5f5f5f"/>
  <path d="m274.71 513.02-1.3217-6.0522-13.329-1.5603-2.1837-0.24838 2.0174 6.0522 14.817 1.8087z" fill="#e45e00" stroke="#d22f00"/>
 </g>
 <g transform="matrix(.56333 0 0 .49274 -84.116 237.32)" fill-rule="evenodd" stroke-width="1.898">
  <path d="m274.71 506.76 1.2522 5.7043-0.90435 1.113-15.652-1.5304-2.4348-7.3739 1.2522-0.27826 16.417 1.7391 0.06957 0.62609z" fill="#8e7d70" stroke="#5f5f5f"/>
  <path d="m274.71 513.02-1.3217-6.0522-13.329-1.5603-2.1837-0.24838 2.0174 6.0522 14.817 1.8087z" fill="#e45e00" stroke="#d22f00"/>
 </g>
</svg>
