<?xml version="1.0" encoding="utf-8"?>
<!-- Generator: Adobe Illustrator 27.5.0, SVG Export Plug-In . SVG Version: 6.00 Build 0)  -->
<svg version="1.1" id="Layer_1" xmlns:xodm="http://www.corel.com/coreldraw/odm/2003"
	 xmlns="http://www.w3.org/2000/svg" xmlns:xlink="http://www.w3.org/1999/xlink" x="0px" y="0px" viewBox="0 0 7000 3000"
	 style="enable-background:new 0 0 7000 3000;" xml:space="preserve">
<g id="Layer_x5F_1">
	<g id="_2462628862288">
		<rect style="fill:#FFFFFF;" width="7000" height="3000"/>
		<g>
			<polygon style="fill:#6666FF;" points="5326.89,1861.92 6438.67,1507.14 7000,864.12 6446.61,571.58 			"/>
			<polygon style="fill:#6666FF;" points="5814.71,509.89 6446.61,571.58 7000,0 5484.45,0 			"/>
			<polygon style="fill:#00FFFF;" points="7000,0 6446.61,571.58 7000,864.12 			"/>
			<polygon style="fill:#00FFFF;" points="5814.71,509.89 5484.45,0 3991.82,0 4521.42,251 			"/>
			<polygon style="fill:#00FFFF;" points="6438.67,1507.14 7000,1968.44 7000,864.12 			"/>
			<polygon style="fill:#00FFFF;" points="7000,1968.44 6438.67,1507.14 5326.89,1861.92 5894.13,2149.59 			"/>
		</g>
		<g>
			<polygon style="fill:#6666FF;" points="1673.11,1861.92 561.33,1507.14 0,864.12 553.39,571.58 			"/>
			<polygon style="fill:#6666FF;" points="1185.29,509.89 553.39,571.58 0,0 1515.55,0 			"/>
			<polygon style="fill:#00FFFF;" points="0,0 553.39,571.58 0,864.12 			"/>
			<polygon style="fill:#00FFFF;" points="1185.29,509.89 1515.55,0 3008.18,0 2478.58,251 			"/>
			<polygon style="fill:#00FFFF;" points="561.33,1507.14 0,1968.44 0,864.12 			"/>
			<polygon style="fill:#00FFFF;" points="0,1968.44 561.33,1507.14 1673.11,1861.92 1105.87,2149.59 			"/>
		</g>
	</g>
</g>
</svg>
